<svg width="66" height="66" xmlns="http://www.w3.org/2000/svg" xmlns:xlink="http://www.w3.org/1999/xlink" overflow="hidden"><defs><clipPath id="clip0"><rect x="231" y="90" width="66" height="66"/></clipPath></defs><g clip-path="url(#clip0)" transform="translate(-231 -90)"><path d="M265.375 110.625 262.625 110.625C261.112 110.625 259.875 109.387 259.875 107.875L259.875 102.375C259.875 100.863 261.112 99.625 262.625 99.625L265.375 99.625C266.888 99.625 268.125 100.863 268.125 102.375L268.125 107.875C268.125 109.387 266.888 110.625 265.375 110.625Z"/><path d="M286 124.375 269.5 124.375 269.5 121.625 286 121.625 286 124.375ZM286 132.625 269.5 132.625 269.5 129.875 286 129.875 286 132.625ZM286 140.875 269.5 140.875 269.5 138.125 286 138.125 286 140.875ZM264 140.875 242 140.875 242 135.375C242 134.55 242.413 133.725 243.1 133.175 244.613 132.075 246.538 131.113 248.462 130.562 249.975 130.15 251.488 129.875 253 129.875 254.65 129.875 256.163 130.15 257.538 130.562 259.462 131.113 261.388 131.938 262.9 133.175 263.587 133.725 264 134.55 264 135.375L264 140.875ZM253 117.5C256.025 117.5 258.5 119.975 258.5 123 258.5 126.025 256.025 128.5 253 128.5 249.975 128.5 247.5 126.025 247.5 123 247.5 119.975 249.975 117.5 253 117.5ZM288.75 107.875 270.875 107.875C270.875 110.9 268.4 113.375 265.375 113.375L262.625 113.375C259.6 113.375 257.125 110.9 257.125 107.875L239.25 107.875C237.738 107.875 236.5 109.113 236.5 110.625L236.5 143.625C236.5 145.137 237.738 146.375 239.25 146.375L288.75 146.375C290.263 146.375 291.5 145.137 291.5 143.625L291.5 110.625C291.5 109.113 290.263 107.875 288.75 107.875Z"/></g></svg>